<svg xmlns="http://www.w3.org/2000/svg" xmlns:xlink="http://www.w3.org/1999/xlink" viewBox="0,0,256,256" width="64px" height="64px" fill-rule="nonzero"><g fill="#ffffff" fill-rule="nonzero" stroke="none" stroke-width="1" stroke-linecap="butt" stroke-linejoin="miter" stroke-miterlimit="10" stroke-dasharray="" stroke-dashoffset="0" font-family="none" font-weight="none" font-size="none" text-anchor="none" style="mix-blend-mode: normal"><g transform="scale(3.55556,3.55556)"><path d="M42.5,14c14.375,0 15.5,1.125 15.5,15.5v13c0,14.375 -1.125,15.5 -15.5,15.5h-13c-14.375,0 -15.5,-1.125 -15.5,-15.5v-13c0,-14.375 1.125,-15.5 15.5,-15.5zM29.697,40.286c0.518,0 0.768,-0.347 0.945,-0.665c0,0 3.597,-6.319 3.736,-6.565c-0.014,-0.023 -2.38,-4.123 -2.38,-4.123c-0.171,-0.306 -0.432,-0.647 -0.963,-0.647h-3.462c-0.208,0 -0.384,0.075 -0.47,0.218c-0.092,0.148 -0.078,0.337 0.021,0.527l2.34,4.025c0.003,0.009 0.003,0.011 0,0.02l-3.678,6.449c-0.097,0.187 -0.092,0.379 0,0.527c0.087,0.14 0.243,0.234 0.451,0.234zM46.212,24.755c0.095,-0.193 0.099,-0.386 0.008,-0.533c-0.088,-0.144 -0.252,-0.222 -0.46,-0.222h-3.499c-0.515,0 -0.741,0.327 -0.927,0.66c0,0 -7.456,13.224 -7.701,13.658c0.013,0.023 4.919,9.021 4.919,9.021c0.172,0.31 0.438,0.661 0.967,0.661h3.457c0.21,0 0.37,-0.079 0.459,-0.221c0.093,-0.148 0.088,-0.342 -0.008,-0.534l-4.879,-8.918c-0.004,-0.006 -0.004,-0.013 0,-0.022z"></path></g></g></svg>